<svg width="26" height="32" viewBox="0 0 26 32" fill="none" xmlns="http://www.w3.org/2000/svg">
<path d="M17.2071 4.95238C17.7941 4.27594 18.2416 3.49022 18.524 2.64035C18.8064 1.79047 18.9181 0.89318 18.8528 0C17.0509 0.145446 15.3783 0.992893 14.1954 2.35976C13.6289 3.01486 13.1996 3.77698 12.9329 4.60097C12.6662 5.42497 12.5676 6.2941 12.6429 7.1569C13.5218 7.16422 14.3906 6.96919 15.1821 6.58692C15.9736 6.20464 16.6665 5.64537 17.2071 4.95238ZM21.1194 16.5028C21.1298 15.3132 21.4431 14.1458 22.0299 13.1109C22.6166 12.076 23.4573 11.2077 24.4727 10.5879C23.8319 9.66451 22.9847 8.90317 21.9985 8.36421C21.0122 7.82526 19.9139 7.52352 18.7907 7.48291C16.3688 7.23452 14.1333 8.89566 12.8447 8.89566C11.5561 8.89566 9.73976 7.51396 7.72155 7.54501C6.40214 7.58848 5.11653 7.97315 3.9901 8.66153C2.86366 9.34991 1.93487 10.3185 1.29431 11.4728C-1.43804 16.2233 0.5957 23.2871 3.32805 27.1217C4.57003 29.0002 6.1225 31.1271 8.17176 31.0494C10.221 30.9718 10.8886 29.7764 13.2639 29.7764C15.6391 29.7764 16.3688 31.0494 18.387 31.0029C20.4052 30.9563 21.8335 29.0778 23.1376 27.1993C24.0614 25.8355 24.783 24.3452 25.28 22.7748C24.0496 22.25 22.9999 21.3764 22.2605 20.2618C21.5211 19.1472 21.1244 17.8403 21.1194 16.5028Z" fill="#EDEDED"/>
</svg>
