<svg width="30" height="34" viewBox="0 0 30 34" fill="none" xmlns="http://www.w3.org/2000/svg">
<path d="M5.97923 0.61713L23.319 10.9541L18.3861 16.0454L2.84014 0.154283C3.1391 0.154283 3.58754 0 3.8865 0C4.6339 0 5.38131 0.154282 5.97923 0.61713ZM0 29.9308V4.01134C0 2.77708 0.597923 1.69711 1.49481 0.925695L17.1903 17.1254L1.64429 33.1707C0.597923 32.3993 0 31.1651 0 29.9308ZM5.97923 33.4793C5.08235 33.9421 4.03598 34.0964 3.1391 33.9421L18.3861 18.3596L23.1695 23.2967L5.97923 33.4793ZM27.6539 20.5196L24.5148 22.371L19.283 17.1254L24.5148 11.7255L27.5045 13.5769C28.7003 14.3483 29.4477 15.5825 29.4477 17.1254C29.5972 18.3596 28.8498 19.7482 27.6539 20.5196Z" fill="#EDEDED"/>
</svg>
